<svg id="Capa_1" enable-background="new 0 0 513.201 513.201" height="512" viewBox="0 0 513.201 513.201" width="512" xmlns="http://www.w3.org/2000/svg"><g><g><path d="m401.321 138.548c-3.72-1.826-8.213-.293-10.039 3.424-1.826 3.718-.294 8.213 3.424 10.039 27.154 13.342 44.023 40.41 44.023 70.644 0 30.232-16.868 57.302-44.022 70.643-3.718 1.826-5.25 6.321-3.424 10.039 1.304 2.653 3.967 4.194 6.737 4.194 1.11 0 2.237-.248 3.302-.771 32.326-15.883 52.407-48.109 52.407-84.105s-20.082-68.224-52.408-84.107z"/><path d="m411.552 221.813c0-21.369-11.921-40.5-31.109-49.928-3.72-1.825-8.213-.293-10.039 3.424-1.826 3.718-.293 8.213 3.424 10.039 14.018 6.887 22.725 20.859 22.725 36.465s-8.707 29.578-22.725 36.465c-3.717 1.826-5.25 6.321-3.424 10.039 1.304 2.653 3.967 4.194 6.737 4.194 1.11 0 2.237-.248 3.302-.771 19.188-9.427 31.109-28.557 31.109-49.927z"/><path d="m354.718 199.739c-3.719-1.825-8.213-.294-10.039 3.424s-.294 8.212 3.424 10.039c3.634 1.785 5.892 5.407 5.892 9.452 0 4.044-2.258 7.666-5.892 9.451-3.718 1.827-5.25 6.321-3.424 10.039 1.304 2.653 3.967 4.194 6.737 4.194 1.11 0 2.237-.248 3.302-.771 8.806-4.327 14.276-13.107 14.276-22.914 0-9.806-5.471-18.587-14.276-22.914z"/><path d="m302.224 196.479h-4.609v-14.558c0-4.143-3.357-7.5-7.5-7.5s-7.5 3.357-7.5 7.5v13.106c-34.321-5.538-54.066-26.424-76.673-50.338-1.508-1.596-3.026-3.201-4.56-4.814-1.93-2.029-4.644-3.193-7.447-3.193h-.003c-2.804.001-5.518 1.166-7.444 3.194-1.533 1.612-3.051 3.218-4.559 4.813-22.607 23.914-42.353 44.8-76.675 50.338v-19.689c0-19.464 7.12-38.624 20.05-53.949 7.985-9.466 18.024-17.299 29.302-23.045 1.859.785 3.879 1.219 5.965 1.219h66.729c2.091 0 4.115-.436 5.978-1.225 11.274 5.746 21.304 13.588 29.288 23.051 7.199 8.533 12.58 18.166 15.994 28.632 1.283 3.937 5.514 6.087 9.456 4.804 3.938-1.284 6.089-5.518 4.804-9.456-4.016-12.312-10.337-23.634-18.789-33.651-8.599-10.193-19.232-18.748-31.14-25.246 2.44-7.697 2.491-16.054 2.015-22.106v-.001c-.448-5.679-3.994-10.47-8.873-12.777 1.274-7.754.813-15.782-1.66-23.33 0-.001 0-.001 0-.001-5.627-17.166-21.509-28.258-40.462-28.257-18.926 0-34.789 11.092-40.413 28.257-2.473 7.548-2.931 15.575-1.656 23.328-4.881 2.306-8.43 7.099-8.877 12.78-.476 6.05-.424 14.404 2.014 22.1-11.91 6.497-22.54 15.058-31.14 25.252-15.209 18.027-23.585 40.621-23.585 63.621v21.141h-4.607c-14.433 0-26.175 11.742-26.175 26.176 0 14.433 11.742 26.175 26.175 26.175h5.157c4.385 42.571 34.635 77.584 74.726 89.02v7.228c-50.378 10.666-88.301 55.474-88.301 108.981v51.643c0 4.143 3.357 7.5 7.5 7.5h77.139c4.143 0 7.5-3.357 7.5-7.5s-3.357-7.5-7.5-7.5h-21.248v-45.264c0-4.143-3.357-7.5-7.5-7.5s-7.5 3.357-7.5 7.5v45.264h-33.391v-44.143c0-45.199 31.276-83.205 73.317-93.579.337 15.372 12.938 27.776 28.389 27.776 15.452 0 28.053-12.405 28.389-27.778 42.041 10.374 73.317 48.382 73.317 93.581v44.143h-33.393v-45.264c0-4.143-3.357-7.5-7.5-7.5s-7.5 3.357-7.5 7.5v45.264h-51.176c-4.143 0-7.5 3.357-7.5 7.5s3.357 7.5 7.5 7.5h107.068c4.143 0 7.5-3.357 7.5-7.5v-51.643c0-53.507-37.923-98.315-88.301-108.981v-7.228c40.09-11.437 70.341-46.449 74.725-89.02h5.159c14.433 0 26.175-11.742 26.175-26.176 0-14.433-11.742-26.175-26.174-26.175zm-134.472-163.552c4.331-13.217 16.352-17.927 26.159-17.927 9.379-.001 21.87 4.694 26.207 17.927 1.8 5.492 2.023 11.444.923 17.181h-54.208c-1.101-5.737-.881-11.689.919-17.181zm-9.834 32.615c.02-.248.204-.435.43-.435h71.175c.226 0 .41.187.43.435.595 7.571-.197 14.217-2.23 18.713-.084.187-.25.308-.422.308h-66.731c-.171 0-.336-.12-.421-.308-2.034-4.498-2.826-11.144-2.231-18.713zm-67.664 168.287h-4.607c-6.162 0-11.175-5.014-11.175-11.176s5.013-11.175 11.175-11.175h4.607zm117.086 126.021c0 7.393-6.014 13.406-13.405 13.406s-13.405-6.014-13.405-13.406v-18.91c4.39.569 8.863.87 13.405.87s9.015-.301 13.405-.87zm75.274-121.72c0 48.898-39.781 88.68-88.68 88.68-48.847 0-88.595-39.698-88.679-88.526v-28.1c40.773-5.71 63.547-29.775 87.573-55.191.367-.389.736-.779 1.105-1.169.369.39.738.78 1.106 1.17 24.026 25.415 46.8 49.48 87.573 55.19v27.946zm19.61-4.301h-4.609v-22.351h4.609c6.162 0 11.175 5.014 11.175 11.176s-5.013 11.175-11.175 11.175z"/><path d="m159.622 214.048c-4.143 0-7.5 3.357-7.5 7.5v15.03c0 4.143 3.357 7.5 7.5 7.5s7.5-3.357 7.5-7.5v-15.03c0-4.143-3.357-7.5-7.5-7.5z"/><path d="m228.248 244.078c4.143 0 7.5-3.357 7.5-7.5v-15.03c0-4.143-3.357-7.5-7.5-7.5s-7.5 3.357-7.5 7.5v15.03c0 4.143 3.357 7.5 7.5 7.5z"/></g></g></svg>